<svg viewBox="0 0 650.62 296.64" xmlns="http://www.w3.org/2000/svg"><path d="m49.97 104.33h359.88v89.18h-359.88z" fill="#fddd00"/><g fill="#fff"><path d="m69.47 85.18v-.16c0-15.54 11.63-28.25 28.1-28.25 10.14 0 16.23 3.51 21.47 8.51l-6.16 7.1c-4.45-4.05-9.05-6.72-15.37-6.72-10.3 0-17.95 8.51-17.95 19.2v.16c0 10.7 7.57 19.35 18.03 19.35 6.72 0 11-2.65 15.68-7.02l6.17 6.24c-5.7 5.93-11.94 9.68-22.17 9.68-16 0-27.78-12.4-27.78-28.1h-.02z"/><path d="m125.03 57.7h9.6v45.9h28.71v8.74h-38.32v-54.63h.01z"/><path d="m162.97 85.18v-.16c0-15.37 11.86-28.25 28.64-28.25s28.48 12.72 28.48 28.1v.16c0 15.38-11.86 28.25-28.64 28.25s-28.48-12.72-28.48-28.1zm47.06 0v-.16c0-10.61-7.73-19.35-18.57-19.35s-18.42 8.58-18.42 19.2v.16c0 10.61 7.73 19.35 18.57 19.35s18.42-8.58 18.42-19.2z"/><path d="m226.34 89.15v-31.45h9.6v31.06c0 10.14 5.23 15.53 13.82 15.53s13.73-5.07 13.73-15.14v-31.45h9.6v30.99c0 16.31-9.21 24.5-23.49 24.5s-23.26-8.19-23.26-24.03z"/><path d="m281.75 57.7h20.37c17.17 0 29.03 11.79 29.03 27.15v.16c0 15.38-11.86 27.31-29.03 27.31h-20.37zm9.6 8.74v37.16h10.77c11.47 0 18.96-7.73 18.96-18.42v-.16c0-10.7-7.49-18.57-18.96-18.57h-10.77z"/><path d="m338.26 57.7h40.66v8.75h-31.06v14.91h27.55v8.74h-27.55v22.24h-9.6v-54.63z"/><path d="m384.93 57.7h9.6v45.9h28.71v8.74h-38.32v-54.63h.01z"/><path d="m429.18 57.7h9.6v54.63h-9.6z"/><path d="m446.43 85.18v-.16c0-15.3 11.7-28.25 28.17-28.25 9.52 0 15.38 2.65 20.99 7.42l-6.09 7.26c-4.21-3.51-8.35-5.77-15.3-5.77-10.07 0-17.72 8.74-17.72 19.2v.16c0 11.24 7.42 19.51 18.57 19.51 5.15 0 9.84-1.63 13.19-4.14v-10.14h-13.96v-8.42h23.26v22.94c-5.38 4.61-13.11 8.51-22.79 8.51-17.09 0-28.33-12.17-28.33-28.1h-.01z"/><path d="m505.51 57.7h9.6v22.71h26.06v-22.71h9.6v54.63h-9.6v-23.03h-26.06v23.03h-9.6z"/><path d="m573.64 66.6h-17.4v-8.9h44.41v8.9h-17.4v45.73h-9.6v-45.73z"/></g><path d="m97.04 179c-16.78 0-29.44-12.79-29.44-29.74v-.16c0-17.04 12.79-29.9 29.74-29.9 11.64 0 17.95 4.53 22.59 8.96l-2.54 2.65c-4.32-4.13-9.73-7.94-20.05-7.94-14.87 0-26.07 11.27-26.07 26.23v.16c0 14.87 11.07 26.07 25.77 26.07 8.53 0 14.52-2.62 20.7-9.05l2.64 2.54c-6.85 7.13-13.83 10.17-23.34 10.17zm.31-8.84c-11.07 0-19.74-9.25-19.74-21.06v-.16c0-11.72 8.64-20.91 19.66-20.91 7.69 0 12.86 3.82 16.51 7.14l-2.47 2.7c-4.76-4.34-8.95-6.19-14.04-6.19-9.12 0-16 7.41-16 17.24v.16c0 9.92 6.91 17.39 16.07 17.39 6.15 0 10.05-2.48 14.33-6.48l2.5 2.68c-4.8 4.48-9.5 7.47-16.84 7.47z"/><path d="m153.47 179c-17.18 0-30.13-12.79-30.13-29.74v-.16c0-16.76 13.3-29.9 30.29-29.9s30.13 12.79 30.13 29.74v.16c0 16.76-13.3 29.9-30.29 29.9zm.16-56.13c-15.18 0-26.62 11.27-26.62 26.23v.16c0 14.87 11.38 26.07 26.46 26.07s26.62-11.27 26.62-26.23v-.16c0-14.87-11.38-26.07-26.46-26.07zm0 47.29c-11.38 0-20.28-9.25-20.28-21.06v-.16c0-11.92 8.65-20.91 20.12-20.91s20.28 9.25 20.28 21.06v.16c0 11.92-8.65 20.91-20.12 20.91zm-.16-38.46c-9.39 0-16.46 7.41-16.46 17.24v.16c0 9.92 7.14 17.39 16.62 17.39s16.46-7.41 16.46-17.24v-.16c0-9.91-7.14-17.39-16.62-17.39z"/><path d="m213.71 178.07h-22.07v-57.93h22.07c17.78 0 30.67 12.12 30.67 28.81v.16c0 16.78-12.9 28.97-30.67 28.97zm-18.41-3.67h18.41c15.65 0 27.01-10.64 27.01-25.3v-.16c0-14.57-11.36-25.14-27.01-25.14h-18.41zm18.41-5.02h-12.53v-40.57h12.53c12.17 0 20.67 8.34 20.67 20.28v.16c0 11.85-8.5 20.12-20.67 20.12zm-8.86-3.67h8.86c10.17 0 17-6.62 17-16.46v-.16c0-9.94-6.83-16.62-17-16.62h-8.86z"/><path d="m266.01 178.1h-3.67v-57.97h3.67zm-9.53 0h-3.67v-57.97h3.67z"/><path d="m289.88 178.1h-3.67v-45.83l32.65 42.13h5.26v-54.28h3.67v57.94h-10.72l-27.2-35.08v35.12zm-9.39 0h-3.67v-57.96h11.57l26.34 33.99v-34.01h3.67v44.72l-31.81-41.05h-6.11v54.3h.01z"/><path d="m365.66 179c-17.37 0-29.97-12.51-29.97-29.74v-.16c0-16.76 13.1-29.9 29.83-29.9 9.11 0 15.5 2.26 22.04 7.8l-2.37 2.8c-4.91-4.16-10.13-6.94-19.67-6.94-14.67 0-26.16 11.52-26.16 26.23v.16c0 15.36 10.82 26.07 26.31 26.07 9.5 0 16.47-3.95 20.81-7.48v-20.1h-21.27v-3.67h24.93v25.47l-.64.54c-4.75 4.05-12.73 8.89-23.83 8.89zm.31-8.68c-11.94 0-20.28-8.73-20.28-21.21v-.16c0-11.72 8.54-20.91 19.43-20.91 7.45 0 11.93 2.46 16.36 6.16l-2.35 2.82c-3.94-3.28-7.66-5.31-14.02-5.31-8.84 0-15.77 7.57-15.77 17.24v.16c0 10.33 6.83 17.55 16.62 17.55 4.1 0 8.15-1.17 11.27-3.23v-7.29h-12.05v-3.67h15.71v12.83l-.74.54c-3.88 2.88-8.92 4.47-14.2 4.47z"/><g fill="#fff"><path d="m69.47 212.99v-.16c0-15.53 11.63-28.25 28.1-28.25 10.14 0 16.23 3.51 21.47 8.51l-6.16 7.1c-4.45-4.05-9.05-6.72-15.37-6.72-10.3 0-17.95 8.51-17.95 19.2v.16c0 10.7 7.57 19.35 18.03 19.35 6.72 0 11-2.65 15.68-7.02l6.17 6.24c-5.7 5.93-11.94 9.68-22.17 9.68-16 0-27.78-12.4-27.78-28.1h-.02z"/><path d="m121.06 212.99v-.16c0-15.37 11.86-28.25 28.64-28.25s28.48 12.72 28.48 28.1v.16c0 15.38-11.86 28.25-28.64 28.25s-28.48-12.72-28.48-28.1zm47.06 0v-.16c0-10.61-7.73-19.35-18.57-19.35s-18.42 8.58-18.42 19.2v.16c0 10.61 7.73 19.35 18.57 19.35s18.42-8.58 18.42-19.2z"/><path d="m185.29 185.51h8.89l29.27 37.77v-37.77h9.44v54.63h-8.04l-30.12-38.87v38.87h-9.44v-54.63h-.01z"/><path d="m255.76 194.41h-17.4v-8.89h44.41v8.89h-17.4v45.73h-9.6v-45.73z"/><path d="m288.23 185.51h40.5v8.58h-30.9v14.21h27.39v8.66h-27.39v14.59h31.29v8.58h-40.9v-54.63h.01z"/><path d="m332.32 232.18 5.77-6.87c5.23 4.53 10.54 7.1 17.24 7.1 5.93 0 9.68-2.81 9.68-6.87v-.16c0-3.9-2.19-6.01-12.33-8.35-11.63-2.81-18.19-6.24-18.19-16.31v-.16c0-9.37 7.8-15.84 18.65-15.84 7.96 0 14.28 2.42 19.82 6.87l-5.15 7.26c-4.91-3.67-9.84-5.62-14.82-5.62-5.62 0-8.89 2.89-8.89 6.47v.16c0 4.21 2.49 6.09 13.03 8.58 11.54 2.81 17.48 6.95 17.48 16v.16c0 10.22-8.04 16.31-19.51 16.31-8.35 0-16.23-2.89-22.79-8.74z"/><path d="m393.67 194.41h-17.4v-8.89h44.41v8.89h-17.4v45.73h-9.6v-45.73z"/></g></svg>